<svg height="512pt" viewBox="0 0 512 512" width="512pt" xmlns="http://www.w3.org/2000/svg"><path d="m481.546875 173.699219c.304687-2.621094.453125-5.179688.453125-7.699219 0-41.457031-33.535156-76-75-76-1.003906 0-2.011719.019531-3.015625.0625-27.289063-53.332031-83.734375-90.0625-147.984375-90.0625-62.507812 0-119.34375 35.363281-147.28125 90.851562-60.757812 6.261719-108.71875 58.289063-108.71875 120.148438 0 66.203125 54.539062 121 121 121h301c49.550781 0 90-41.050781 90-91 0-25.777344-11.230469-50.292969-30.453125-67.300781zm-59.546875 128.300781h-301c-49.328125 0-91-41.671875-91-91 0-48.882812 39.871094-89.59375 88.882812-90.753906.101563.019531 35.808594-3.835938 65.757813 26.113281l21.210937-21.210937c-17.480468-17.480469-39.402343-28.898438-63.222656-33.210938 24.59375-38.195312 67.074219-61.9375 113.371094-61.9375 54.777344 0 103.921875 32.226562 125.195312 82.097656l4.800782 11.25c10.027344-1.867187 14-3.347656 21.003906-3.347656 24.394531 0 45 21.066406 45 46 0 6.875-2.046875 12.578125-3.710938 20.257812 2.46875 2.589844 33.710938 17.546876 33.710938 54.742188 0 33.636719-26.914062 61-60 61zm0 0" fill="#82B1FF"/><path d="m181 452h75c8.269531 0 15 6.730469 15 15s-6.730469 15-15 15v30c24.8125 0 45-20.1875 45-45s-20.1875-45-45-45h-75zm0 0" fill="#82B1FF"/><path d="m467 362v30c8.269531 0 15 6.730469 15 15s-6.730469 15-15 15h-136v30h136c24.8125 0 45-20.1875 45-45s-20.1875-45-45-45zm0 0" fill="#82B1FF"/><path d="m90 482h121v30h-121zm0 0" fill="#82B1FF"/><path d="m362 482h90v30h-90zm0 0" fill="#82B1FF"/><path d="m30 482h30v30h-30zm0 0" fill="#82B1FF"/><path d="m30 362h30v30h-30zm0 0" fill="#82B1FF"/><path d="m211 362h30v30h-30zm0 0" fill="#82B1FF"/><path d="m271 362h121v30h-121zm0 0" fill="#82B1FF"/><path d="m0 452h106c24.8125 0 45-20.1875 45-45s-20.1875-45-45-45v30c8.269531 0 15 6.730469 15 15s-6.730469 15-15 15h-106zm0 0" fill="#82B1FF"/></svg>