<svg height="512pt" viewBox="0 0 512 512" width="512pt" xmlns="http://www.w3.org/2000/svg"><path d="m512 0h-30v30h-452v-30h-30v422h512zm-346 392v-47h-30v47h-42.324219l25.054688-152h64.539062l25.054688 152zm45-182c-26.996094 0-94.367188 0-120 0v-30h120zm165 182v-47h-30v47h-42.324219l25.054688-152h64.539062l25.054688 152zm45-182c-26.996094 0-94.367188 0-120 0v-30h120zm61 182h-33.269531l-25.054688-152h27.324219v-90h-180v90h27.324219l-25.054688 152h-34.539062l-25.054688-152h27.324219v-90h-180v90h27.324219l-25.054688 152h-33.269531v-272h452zm0-302h-452v-30h452zm0 0" fill="#B388FF"/><path d="m0 452h91v30h-91zm0 0" fill="#B388FF"/><path d="m121 482h60v30h-60zm0 0" fill="#B388FF"/><path d="m211 452h90v30h-90zm0 0" fill="#B388FF"/><path d="m421 452h91v30h-91zm0 0" fill="#B388FF"/><path d="m331 482h60v30h-60zm0 0" fill="#B388FF"/><path d="m136 285h30v30h-30zm0 0" fill="#B388FF"/><path d="m346 285h30v30h-30zm0 0" fill="#B388FF"/></svg>